<?xml version="1.0" standalone="no"?>
<!DOCTYPE svg PUBLIC "-//W3C//DTD SVG 20010904//EN"
 "http://www.w3.org/TR/2001/REC-SVG-20010904/DTD/svg10.dtd">
<svg version="1.0" xmlns="http://www.w3.org/2000/svg"
 width="256.000000pt" height="256.000000pt" viewBox="0 0 256.000000 256.000000"
 preserveAspectRatio="xMidYMid meet">

<g transform="translate(0.000000,256.000000) scale(0.100000,-0.100000)"
fill="#000000" stroke="none">
<path d="M2015 2549 c-435 -46 -882 -221 -1231 -482 -243 -181 -542 -497 -545
-575 -4 -100 10 -117 206 -252 l170 -116 5 -65 c6 -77 13 -89 49 -89 44 0 51
16 51 112 l0 88 -59 44 -60 43 63 79 c190 241 425 429 709 569 72 36 134 65
138 65 3 0 9 -22 13 -48 11 -85 80 -170 169 -207 20 -8 65 -15 99 -15 186 0
315 183 254 358 l-15 41 32 5 c18 3 62 8 100 11 l67 6 0 -631 0 -630 -24 -10
c-14 -5 -44 -26 -67 -47 -135 -122 -114 -345 42 -431 l49 -27 0 -99 0 -98 -27
17 c-16 10 -70 46 -120 81 -136 93 -163 87 -163 -36 0 -80 -14 -110 -52 -110
-31 0 -37 26 -39 173 -1 131 1 149 19 171 46 59 54 192 17 270 -45 94 -138
151 -245 150 -82 0 -142 -27 -201 -91 -35 -38 -45 -44 -58 -35 -50 36 -74 44
-97 33 -23 -10 -24 -15 -24 -124 0 -120 -12 -157 -50 -157 -43 0 -50 33 -50
222 l0 177 -126 85 c-69 47 -134 88 -144 91 -12 4 -27 -2 -39 -14 -20 -20 -21
-31 -21 -376 l0 -355 -25 -12 c-21 -9 -28 -8 -45 7 -18 17 -20 31 -20 171 0
147 -1 154 -22 168 -29 20 -34 20 -58 -4 -18 -18 -20 -33 -20 -172 0 -129 3
-160 19 -195 46 -100 187 -109 248 -16 16 24 19 63 23 340 l5 314 62 -43 61
-42 4 -171 c3 -156 5 -173 26 -206 39 -64 118 -86 188 -53 48 23 75 72 83 153
l6 68 192 -130 192 -131 3 -143 c3 -142 3 -142 33 -173 81 -84 214 -50 247 64
6 22 13 43 14 44 1 2 55 -33 120 -77 65 -45 125 -81 135 -81 10 0 25 7 33 16
14 14 16 138 16 1221 0 1333 4 1247 -64 1295 -36 27 -112 32 -251 17z m195
-109 c17 -17 20 -33 20 -120 l0 -100 -37 0 c-21 0 -98 -7 -172 -16 -395 -46
-778 -207 -1101 -464 -98 -78 -283 -266 -353 -357 -27 -35 -51 -63 -55 -63 -4
0 -43 26 -87 58 -52 37 -81 65 -83 80 -5 30 65 119 208 266 434 446 957 683
1623 735 9 0 26 -8 37 -19z m-286 -369 c3 -4 -6 -6 -19 -3 -14 2 -25 6 -25 8
0 8 39 4 44 -5z m-57 -7 c-3 -3 -12 -4 -19 -1 -8 3 -5 6 6 6 11 1 17 -2 13 -5z
m-50 -10 c-3 -3 -12 -4 -19 -1 -8 3 -5 6 6 6 11 1 17 -2 13 -5z m-40 -10 c-3
-3 -12 -4 -19 -1 -8 3 -5 6 6 6 11 1 17 -2 13 -5z m-70 -20 c-3 -3 -12 -4 -19
-1 -8 3 -5 6 6 6 11 1 17 -2 13 -5z m-76 -51 c-4 -28 -6 -32 -9 -15 -3 22 3
52 11 52 1 0 1 -17 -2 -37z m326 -20 c-3 -10 -5 -2 -5 17 0 19 2 27 5 18 2
-10 2 -26 0 -35z m-7 -37 c0 -8 -9 -24 -20 -37 l-19 -24 17 37 c19 41 22 45
22 24z m-236 -87 c17 -10 25 -19 19 -19 -16 0 -93 69 -93 83 0 5 10 -3 22 -18
12 -15 35 -36 52 -46z m167 1 c-13 -11 -28 -20 -35 -20 -6 0 3 9 19 19 39 25
46 25 16 1z m-68 -27 c-13 -2 -33 -2 -45 0 -13 2 -3 4 22 4 25 0 35 -2 23 -4z
m-200 -1050 c-7 -2 -21 -2 -30 0 -10 3 -4 5 12 5 17 0 24 -2 18 -5z m50 0 c-7
-2 -19 -2 -25 0 -7 3 -2 5 12 5 14 0 19 -2 13 -5z m42 -13 c3 -6 -1 -7 -9 -4
-18 7 -21 14 -7 14 6 0 13 -4 16 -10z m525 -140 c0 -77 -1 -140 -3 -140 -2 0
-14 12 -28 27 -22 25 -22 26 -1 9 l22 -19 0 128 c0 120 -1 127 -17 114 -16
-13 -17 -12 -4 4 7 9 17 17 22 17 5 0 9 -63 9 -140z m-485 110 c10 -11 16 -20
13 -20 -3 0 -13 9 -23 20 -10 11 -16 20 -13 20 3 0 13 -9 23 -20z m-262 -35
c-3 -9 -8 -14 -10 -11 -3 3 -2 9 2 15 9 16 15 13 8 -4z m674 -87 c-2 -13 -4
-5 -4 17 -1 22 1 32 4 23 2 -10 2 -28 0 -40z m-370 -10 c-2 -13 -4 -5 -4 17
-1 22 1 32 4 23 2 -10 2 -28 0 -40z m-87 -64 c0 -3 -20 9 -45 26 -25 17 -45
33 -45 36 0 3 20 -9 45 -26 25 -17 45 -33 45 -36z"/>
<path d="M1105 1601 c-83 -23 -151 -75 -188 -145 -31 -58 -31 -184 0 -241 52
-100 171 -165 272 -151 150 20 249 140 239 289 -9 139 -104 237 -243 251 -27
3 -63 1 -80 -3z m83 -108 c-16 -2 -40 -2 -55 0 -16 2 -3 4 27 4 30 0 43 -2 28
-4z m57 -13 c3 -6 -1 -7 -9 -4 -18 7 -21 14 -7 14 6 0 13 -4 16 -10z m40 -30
c10 -11 16 -20 13 -20 -3 0 -13 9 -23 20 -10 11 -16 20 -13 20 3 0 13 -9 23
-20z m-262 -35 c-3 -9 -8 -14 -10 -11 -3 3 -2 9 2 15 9 16 15 13 8 -4z m304
-97 c-2 -13 -4 -5 -4 17 -1 22 1 32 4 23 2 -10 2 -28 0 -40z m-330 10 c-3 -8
-6 -5 -6 6 -1 11 2 17 5 13 3 -3 4 -12 1 -19z m25 -73 c9 -20 9 -20 -6 -1 -9
11 -16 27 -15 35 0 14 1 14 6 1 3 -8 10 -24 15 -35z m250 -45 c-18 -17 -38
-30 -45 -30 -6 0 2 9 19 19 18 11 35 24 38 30 4 6 10 11 14 11 4 0 -8 -14 -26
-30z m-221 3 c13 -16 12 -17 -3 -4 -10 7 -18 15 -18 17 0 8 8 3 21 -13z m44
-31 c-3 -3 -11 0 -18 7 -9 10 -8 11 6 5 10 -3 15 -9 12 -12z m42 -8 c-3 -3
-12 -4 -19 -1 -8 3 -5 6 6 6 11 1 17 -2 13 -5z m70 0 c-3 -3 -12 -4 -19 -1 -8
3 -5 6 6 6 11 1 17 -2 13 -5z"/>
<path d="M1782 1474 c-101 -50 -159 -153 -149 -264 24 -272 389 -343 511 -98
51 102 27 237 -55 315 -81 77 -209 96 -307 47z m141 -81 c-13 -2 -33 -2 -45 0
-13 2 -3 4 22 4 25 0 35 -2 23 -4z m-88 -15 c-11 -6 -31 -20 -45 -32 -14 -11
-11 -6 7 12 18 17 38 32 45 32 7 0 4 -6 -7 -12z m232 -170 c-2 -13 -4 -3 -4
22 0 25 2 35 4 23 2 -13 2 -33 0 -45z m-237 -115 c24 -13 38 -23 30 -23 -8 0
-30 9 -48 20 -33 20 -72 74 -72 100 0 8 10 -6 23 -30 16 -33 34 -51 67 -67z
m222 60 c-6 -10 -23 -29 -38 -43 -25 -22 -25 -21 4 13 18 21 32 43 32 49 0 6
3 9 6 6 3 -4 1 -15 -4 -25z m-135 -89 c-3 -3 -12 -4 -19 -1 -8 3 -5 6 6 6 11
1 17 -2 13 -5z"/>
<path d="M653 860 c-26 -11 -38 -43 -24 -68 14 -26 45 -33 71 -15 43 30 3 102
-47 83z"/>
</g>
</svg>
